<svg width="16" height="16" viewBox="0 0 16 16" fill="none" xmlns="http://www.w3.org/2000/svg">
<path d="M8 10.6667C8.20713 10.6607 8.39653 10.5832 8.55047 10.4162L12.2987 6.53808C12.429 6.40687 12.5 6.23988 12.5 6.04306C12.5 5.64944 12.1922 5.33334 11.8016 5.33334C11.6122 5.33334 11.4287 5.41088 11.2925 5.54805L8.00593 8.96694L4.70744 5.54805C4.57131 5.41684 4.39374 5.33334 4.19842 5.33334C3.80778 5.33334 3.5 5.64944 3.5 6.04306C3.5 6.23988 3.57103 6.40687 3.70124 6.53808L7.45547 10.4162C7.61527 10.5832 7.79287 10.6667 8 10.6667Z" fill="#62656A"/>
</svg>
