<svg width="32" height="32" viewBox="0 0 32 32" fill="none" xmlns="http://www.w3.org/2000/svg">
<g clip-path="url(#clip0_105_8)">
<path d="M32 27.5556C32 30.0444 30.0444 32 27.5556 32H4.44444C1.95556 32 0 30.0444 0 27.5556V4.44444C0 1.95556 1.95556 0 4.44444 0H27.5556C30.0444 0 32 1.95556 32 4.44444V27.5556Z" fill="#3B5998"/>
<path d="M25.2444 16.8893H22.2222V28.4449H17.7778V16.8893H15.1111V13.3338H17.7778V11.2004C17.7778 8.08932 19.1111 6.22266 22.7555 6.22266H25.7778V9.77821H23.7333C22.3111 9.77821 22.2222 10.3115 22.2222 11.2893V13.3338H25.7778L25.2444 16.8893Z" fill="white"/>
</g>
<defs>
<clipPath id="clip0_105_8">
<rect width="32" height="32" fill="white"/>
</clipPath>
</defs>
</svg>
