<svg width="24" height="24" viewBox="0 0 24 24" fill="none" xmlns="http://www.w3.org/2000/svg">
<path d="M2.46656 0.401367C2.18662 0.681301 2 1.14786 2 1.70773V22.3296C2 22.8894 2.18662 23.356 2.46656 23.6359L2.55987 23.7293L14.1305 12.1586L2.46656 0.401367Z" fill="url(#paint0_linear_105_4)"/>
<path d="M17.9563 15.9831L14.1305 12.1574L17.9563 8.23828L22.5285 10.851C23.8349 11.5975 23.8349 12.8105 22.5285 13.557L17.9563 15.9831Z" fill="url(#paint1_linear_105_4)"/>
<path d="M17.9563 15.983L14.1305 12.1572L2.46655 23.6346C2.93311 24.1011 3.58629 24.1011 4.42609 23.7279L17.9563 15.983Z" fill="url(#paint2_linear_105_4)"/>
<path d="M17.9563 8.23822L4.33278 0.306739C3.58629 -0.159819 2.8398 -0.0665074 2.46655 0.40005L14.1305 12.1573L17.9563 8.23822Z" fill="url(#paint3_linear_105_4)"/>
<defs>
<linearGradient id="paint0_linear_105_4" x1="13.036" y1="1.49237" x2="-2.62386" y2="17.1523" gradientUnits="userSpaceOnUse">
<stop stop-color="#00A0FF"/>
<stop offset="0.00657445" stop-color="#00A1FF"/>
<stop offset="0.2601" stop-color="#00BEFF"/>
<stop offset="0.5122" stop-color="#00D2FF"/>
<stop offset="0.7604" stop-color="#00DFFF"/>
<stop offset="1" stop-color="#00E3FF"/>
</linearGradient>
<linearGradient id="paint1_linear_105_4" x1="24.2658" y1="12.0277" x2="1.6873" y2="12.0277" gradientUnits="userSpaceOnUse">
<stop stop-color="#FFE000"/>
<stop offset="0.4087" stop-color="#FFBD00"/>
<stop offset="0.7754" stop-color="#FFA500"/>
<stop offset="1" stop-color="#FF9C00"/>
</linearGradient>
<linearGradient id="paint2_linear_105_4" x1="15.8609" y1="14.1687" x2="-5.37525" y2="35.4048" gradientUnits="userSpaceOnUse">
<stop stop-color="#FF3A44"/>
<stop offset="1" stop-color="#C31162"/>
</linearGradient>
<linearGradient id="paint3_linear_105_4" x1="-0.496364" y1="-6.47169" x2="8.98651" y2="3.01109" gradientUnits="userSpaceOnUse">
<stop stop-color="#32A071"/>
<stop offset="0.0685" stop-color="#2DA771"/>
<stop offset="0.4762" stop-color="#15CF74"/>
<stop offset="0.8009" stop-color="#06E775"/>
<stop offset="1" stop-color="#00F076"/>
</linearGradient>
</defs>
</svg>
