<svg width="32" height="32" viewBox="0 0 32 32" fill="none" xmlns="http://www.w3.org/2000/svg">
<g clip-path="url(#clip0_105_5)">
<path d="M16 0C29.3333 0 32 2.66667 32 16C32 29.3333 29.3333 32 16 32C2.66667 32 0 29.3333 0 16C0 2.66667 2.66667 0 16 0Z" fill="url(#paint0_linear_105_5)"/>
<path fill-rule="evenodd" clip-rule="evenodd" d="M15.9998 8.34859C18.492 8.34859 18.7869 8.35826 19.7713 8.40306C20.6812 8.44453 21.1754 8.59646 21.5044 8.72426C21.9401 8.89359 22.2509 9.09586 22.5776 9.42226C22.9044 9.74899 23.1067 10.0599 23.2756 10.4955C23.4034 10.8245 23.5554 11.3187 23.5968 12.2287C23.6417 13.2127 23.6513 13.5079 23.6513 16.0001C23.6513 18.4924 23.6417 18.7873 23.5968 19.7717C23.5554 20.6815 23.4034 21.1757 23.2756 21.5047C23.1064 21.9405 22.904 22.2513 22.5776 22.578C22.2509 22.9048 21.9401 23.1071 21.5044 23.276C21.1754 23.4038 20.6812 23.5557 19.7713 23.5972C18.7873 23.6421 18.492 23.6517 15.9998 23.6517C13.5076 23.6517 13.2123 23.6421 12.2283 23.5972C11.3184 23.5557 10.8242 23.4038 10.4952 23.276C10.0595 23.1067 9.74863 22.9044 9.42189 22.578C9.09516 22.2513 8.89283 21.9405 8.72389 21.5047C8.59609 21.1757 8.44416 20.6815 8.40269 19.7717C8.35789 18.7877 8.34823 18.4924 8.34823 16.0001C8.34823 13.5079 8.35789 13.213 8.40269 12.2287C8.44416 11.3187 8.59609 10.8245 8.72389 10.4955C8.89323 10.0599 9.09549 9.74899 9.42189 9.42226C9.74863 9.09553 10.0595 8.89319 10.4952 8.72426C10.8242 8.59646 11.3184 8.44453 12.2283 8.40306C13.2126 8.35826 13.5076 8.34859 15.9998 8.34859ZM15.9998 6.66699C13.465 6.66699 13.1471 6.67773 12.1516 6.72333C11.1584 6.76853 10.48 6.92633 9.88609 7.15713C9.27223 7.39573 8.75169 7.71473 8.23303 8.23373C7.71436 8.75246 7.39496 9.27293 7.15676 9.88646C6.92596 10.4803 6.76816 11.1587 6.72296 12.1519C6.67736 13.1475 6.66663 13.4653 6.66663 16.0001C6.66663 18.535 6.67736 18.8529 6.72296 19.8483C6.76816 20.8416 6.92596 21.5199 7.15676 22.1138C7.39536 22.7277 7.71436 23.2482 8.23336 23.7669C8.75243 24.2859 9.27256 24.6049 9.88649 24.8435C10.48 25.0743 11.1587 25.2321 12.152 25.2773C13.1474 25.3229 13.4653 25.3337 16.0002 25.3337C18.535 25.3337 18.8528 25.3229 19.8484 25.2773C20.8416 25.2321 21.5203 25.0743 22.1138 24.8435C22.7277 24.6049 23.2482 24.2859 23.7669 23.7669C24.286 23.2479 24.605 22.7277 24.8435 22.1138C25.0743 21.5203 25.2322 20.8416 25.2774 19.8483C25.3229 18.8529 25.3337 18.535 25.3337 16.0001C25.3337 13.4653 25.3229 13.1475 25.2774 12.1519C25.2322 11.1587 25.0743 10.48 24.8435 9.88646C24.605 9.27259 24.286 8.75206 23.7669 8.23339C23.2478 7.71433 22.7277 7.39533 22.1138 7.15679C21.5196 6.92633 20.8412 6.76853 19.848 6.72333C18.8525 6.67773 18.5346 6.66699 15.9998 6.66699ZM15.9998 11.2076C13.3527 11.2076 11.2072 13.3535 11.2072 16.0001C11.2072 18.6469 13.3531 20.7927 15.9998 20.7927C18.6465 20.7927 20.7923 18.6469 20.7923 16.0001C20.7923 13.3535 18.6468 11.2076 15.9998 11.2076ZM15.9998 19.1111C14.2815 19.1111 12.8888 17.7181 12.8888 16.0001C12.8888 14.2819 14.2818 12.8892 15.9998 12.8892C17.7177 12.8892 19.1107 14.2822 19.1107 16.0001C19.1107 17.7185 17.7181 19.1111 15.9998 19.1111ZM22.102 11.0179C22.102 11.6365 21.6006 12.1379 20.982 12.1379C20.3635 12.1379 19.862 11.6365 19.862 11.0179C19.862 10.3994 20.3635 9.89793 20.982 9.89793C21.6006 9.89793 22.102 10.3994 22.102 11.0179Z" fill="white"/>
</g>
<defs>
<linearGradient id="paint0_linear_105_5" x1="28.5403" y1="3.77093" x2="3.36279" y2="28.3236" gradientUnits="userSpaceOnUse">
<stop stop-color="#BA00B2"/>
<stop offset="0.5" stop-color="#F40000"/>
<stop offset="1" stop-color="#FFA800"/>
</linearGradient>
<clipPath id="clip0_105_5">
<rect width="32" height="32" fill="white"/>
</clipPath>
</defs>
</svg>
