<svg width="24" height="24" viewBox="0 0 24 24" fill="none" xmlns="http://www.w3.org/2000/svg">
<g clip-path="url(#clip0_125_10)">
<path fill-rule="evenodd" clip-rule="evenodd" d="M15.6375 10.7743C15.6375 13.5357 13.3989 15.7743 10.6375 15.7743C7.87603 15.7743 5.63745 13.5357 5.63745 10.7743C5.63745 8.01287 7.87603 5.77429 10.6375 5.77429C13.3989 5.77429 15.6375 8.01287 15.6375 10.7743ZM14.4773 16.0194C13.4015 16.8084 12.0739 17.2743 10.6375 17.2743C7.0476 17.2743 4.13745 14.3642 4.13745 10.7743C4.13745 7.18444 7.0476 4.27429 10.6375 4.27429C14.2274 4.27429 17.1375 7.18444 17.1375 10.7743C17.1375 12.2107 16.6716 13.5383 15.8826 14.6141L19.8465 18.5779C20.2345 18.966 20.2345 19.5952 19.8465 19.9833C19.4584 20.3713 18.8292 20.3713 18.4411 19.9833L14.4773 16.0194Z" fill="black"/>
</g>
<defs>
<clipPath id="clip0_125_10">
<rect width="24" height="24" fill="white"/>
</clipPath>
</defs>
</svg>
