<svg width="32" height="32" viewBox="0 0 32 32" fill="none" xmlns="http://www.w3.org/2000/svg">
<g clip-path="url(#clip0_105_6)">
<path d="M16 0C29.3333 0 32 2.66667 32 16C32 29.3333 29.3333 32 16 32C2.66667 32 0 29.3333 0 16C0 2.66667 2.66667 0 16 0Z" fill="url(#paint0_linear_105_6)"/>
<path d="M7.86111 15.8662C12.5255 13.8341 15.6357 12.4943 17.1919 11.847C21.6354 9.99887 22.5586 9.67786 23.1604 9.66709C23.2928 9.66491 23.5887 9.69771 23.7805 9.85327C23.9423 9.98462 23.9869 10.162 24.0082 10.2866C24.0295 10.4111 24.056 10.6947 24.0349 10.9164C23.7941 13.4464 22.7522 19.586 22.2222 22.4196C21.9979 23.6186 21.5562 24.0206 21.1287 24.06C20.1996 24.1455 19.4941 23.4459 18.5941 22.856C17.1859 21.9329 16.3903 21.3583 15.0234 20.4575C13.4437 19.4165 14.4678 18.8443 15.368 17.9093C15.6037 17.6646 19.6975 13.9409 19.7767 13.6031C19.7866 13.5609 19.7959 13.4034 19.7023 13.3203C19.6087 13.2371 19.4706 13.2656 19.371 13.2881C19.2298 13.3202 16.9802 14.8071 12.6221 17.7489C11.9836 18.1874 11.4052 18.4011 10.887 18.3899C10.3157 18.3775 9.21681 18.0668 8.39987 17.8013C7.39783 17.4755 6.60148 17.3034 6.67084 16.7502C6.70695 16.4621 7.10372 16.1674 7.86111 15.8662Z" fill="white"/>
</g>
<defs>
<linearGradient id="paint0_linear_105_6" x1="16" y1="0" x2="16" y2="31.7625" gradientUnits="userSpaceOnUse">
<stop stop-color="#2AABEE"/>
<stop offset="1" stop-color="#229ED9"/>
</linearGradient>
<clipPath id="clip0_105_6">
<rect width="32" height="32" fill="white"/>
</clipPath>
</defs>
</svg>
